<?xml version="1.0" standalone="no"?>
<!DOCTYPE svg PUBLIC "-//W3C//DTD SVG 20010904//EN"
 "http://www.w3.org/TR/2001/REC-SVG-20010904/DTD/svg10.dtd">
<svg version="1.0" xmlns="http://www.w3.org/2000/svg"
 width="600.000000pt" height="600.000000pt" viewBox="0 0 600.000000 600.000000"
 preserveAspectRatio="xMidYMid meet">

<g transform="translate(0.000000,600.000000) scale(0.100000,-0.100000)"
fill="#000000" stroke="none">
<path d="M2730 3719 c-136 -15 -260 -77 -367 -185 -57 -57 -81 -92 -116 -166
-42 -86 -53 -124 -73 -233 -7 -40 -7 -40 -19 30 -7 39 -29 177 -50 308 l-38
237 -227 0 -227 0 -71 -257 c-40 -142 -77 -285 -83 -318 -14 -75 -18 -89 -25
-82 -3 3 -43 151 -88 329 l-83 323 -231 3 c-166 2 -232 -1 -232 -9 0 -13 -178
-1146 -184 -1174 -4 -16 -43 -33 -193 -84 -172 -60 -356 -130 -342 -131 3 0
116 31 250 70 l244 70 233 0 232 0 0 34 c0 87 3 90 103 114 51 12 95 22 99 22
4 0 19 -38 33 -85 l26 -86 131 3 130 3 44 136 44 135 75 18 c42 10 78 16 81
13 2 -2 9 -58 14 -123 6 -65 13 -134 16 -151 l5 -33 214 0 215 0 -5 28 c-11
61 -55 337 -55 345 0 5 19 -28 41 -73 74 -148 211 -268 364 -321 59 -20 89
-24 190 -24 66 0 136 3 155 8 l35 7 44 140 c25 77 47 138 49 135 5 -4 -13
-157 -24 -217 l-6 -28 206 0 205 0 5 33 c9 57 56 564 56 606 0 62 16 49 29
-21 6 -35 46 -173 90 -308 66 -205 81 -244 96 -242 40 8 316 136 324 151 9 17
100 318 124 411 8 30 17 48 20 40 3 -8 12 -93 21 -189 8 -95 17 -175 19 -177
6 -6 148 62 239 114 128 72 134 91 99 297 -10 61 -18 111 -18 112 1 1 81 7
177 14 191 13 400 2 464 -25 188 -79 -82 -268 -782 -547 -216 -87 -872 -318
-1045 -369 -42 -13 -76 -25 -74 -27 5 -4 521 130 760 198 98 28 181 48 184 45
4 -3 8 -31 11 -61 l4 -55 214 0 c165 0 214 3 214 13 0 6 -7 61 -16 120 -10 63
-13 111 -8 116 5 5 108 43 229 84 406 139 758 291 922 396 97 62 173 139 173
176 0 136 -440 162 -1243 74 -108 -12 -199 -20 -201 -18 -3 2 -14 61 -25 129
-12 69 -24 135 -26 148 l-5 22 -226 0 c-171 0 -226 -3 -229 -12 -2 -7 -27 -97
-56 -199 l-51 -186 -65 -12 c-36 -7 -66 -11 -68 -9 -1 2 -26 96 -55 211 l-53
207 -228 0 -227 0 -5 -22 c-3 -13 -22 -131 -43 -263 -20 -132 -42 -245 -48
-252 -6 -6 -120 -34 -254 -62 -133 -29 -250 -55 -259 -58 -14 -6 -15 0 -10 45
15 129 118 222 246 222 62 0 121 -21 182 -64 38 -28 48 -32 53 -20 3 9 6 112
6 229 l0 213 -77 20 c-90 23 -210 32 -303 21z m1170 -536 c0 -26 -23 -133 -29
-133 -4 0 -14 29 -23 65 -14 58 -14 64 1 68 26 7 51 7 51 0z m-2776 -107 c3
-29 26 -122 51 -205 25 -83 45 -157 45 -164 0 -14 -147 -63 -158 -53 -5 5 10
182 35 428 7 70 18 67 27 -6z m671 -138 l7 -87 -43 -11 c-24 -6 -53 -14 -63
-17 -15 -4 -18 -2 -12 12 8 22 71 237 82 280 7 27 8 23 15 -30 4 -33 10 -99
14 -147z m1331 60 c-9 -64 -30 -90 -108 -129 -101 -51 -209 -48 -288 8 -36 27
-75 71 -68 78 6 6 418 92 447 94 23 1 23 -1 17 -51z"/>
</g>
</svg>
